<svg width="120" height="120" viewBox="0 0 120 120" fill="none" xmlns="http://www.w3.org/2000/svg">
<circle cx="60" cy="60" r="59.1944" fill="white" stroke="#DEDEDE" stroke-width="1.61111"/>
<path d="M52.77 59.395L58.48 53.67L53.3475 48.52L50.45 51.415L48.68 49.645L51.5625 46.75L46.6825 41.87L40.9575 47.595L52.77 59.395ZM72.355 78.995L78.08 73.27L73.2025 68.39L70.3075 71.27L68.54 69.5L71.4175 66.605L66.3175 61.52L60.605 67.23L72.355 78.995ZM47.8825 80H40V72.115L50.985 61.13L37.5 47.5975L46.6825 38.415L60.28 51.9625L71.4475 40.78C71.7225 40.5034 72.0125 40.3042 72.3175 40.1825C72.6225 40.0609 72.9475 40 73.2925 40C73.6375 40 73.9625 40.0609 74.2675 40.1825C74.5725 40.3042 74.8633 40.5034 75.14 40.78L79.22 45.02C79.4967 45.295 79.6883 45.585 79.795 45.89C79.9017 46.195 79.9542 46.52 79.9525 46.865C79.9508 47.21 79.8975 47.525 79.7925 47.81C79.6875 48.095 79.4975 48.375 79.2225 48.65L68.1475 59.785L81.5875 73.3175L72.4 82.5L58.8675 69.015L47.8825 80ZM42.5 77.5H46.8175L71.3675 52.965L67.0325 48.635L42.5 73.1825V77.5ZM69.23 50.785L67.035 48.635L71.365 52.9675L69.23 50.785Z" fill="#008000"/>
</svg>
