<svg width="120" height="120" viewBox="0 0 120 120" fill="none" xmlns="http://www.w3.org/2000/svg">
<circle cx="60" cy="60" r="59.1944" fill="white" stroke="#DEDEDE" stroke-width="1.61111"/>
<path d="M61.4004 82.05C60.9924 82.343 60.5028 82.5006 60.0004 82.5006C59.4981 82.5006 59.0084 82.343 58.6004 82.05C46.5279 73.445 33.7154 55.745 46.6679 42.955C50.2238 39.4571 55.0125 37.4978 60.0004 37.5C65.0004 37.5 69.7979 39.4625 73.3329 42.9525C86.2854 55.7425 73.4729 73.44 61.4004 82.05Z" stroke="#008000" stroke-width="3.5" stroke-linecap="round" stroke-linejoin="round"/>
<path d="M60 60C61.3261 60 62.5979 59.4732 63.5355 58.5355C64.4732 57.5979 65 56.3261 65 55C65 53.6739 64.4732 52.4021 63.5355 51.4645C62.5979 50.5268 61.3261 50 60 50C58.6739 50 57.4021 50.5268 56.4645 51.4645C55.5268 52.4021 55 53.6739 55 55C55 56.3261 55.5268 57.5979 56.4645 58.5355C57.4021 59.4732 58.6739 60 60 60Z" stroke="#008000" stroke-width="3.5" stroke-linecap="round" stroke-linejoin="round"/>
</svg>
