<svg width="120" height="120" viewBox="0 0 120 120" fill="none" xmlns="http://www.w3.org/2000/svg">
<circle cx="60" cy="60" r="59.1944" fill="white" stroke="#DEDEDE" stroke-width="1.61111"/>
<path d="M37.5 85V47.5C37.5 41.6075 37.5 38.66 39.33 36.83C41.16 35 44.1075 35 50 35H57.5C63.3925 35 66.34 35 68.17 36.83C70 38.66 70 41.6075 70 47.5V85M35 85H72.5M37.5 57.5H70M82.5 51.3175L83.6175 50.7625C84.2925 50.43 84.6275 50.2625 84.8125 49.965C85 49.665 85 49.295 85 48.55V46.815C85 45.2075 85 44.4025 84.565 44.0325C84.4269 43.9149 84.2648 43.8287 84.09 43.78C83.535 43.625 82.8575 44.0725 81.505 44.965C79.7675 46.11 78.9 46.6825 78.345 47.5C78.1621 47.7716 78.0064 48.0605 77.88 48.3625C77.5 49.27 77.5 50.3 77.5 52.3675V56.45C77.5 57.03 77.975 57.5 78.5625 57.5C78.9853 57.5012 79.3988 57.3762 79.7502 57.141C80.1016 56.9059 80.3748 56.5713 80.535 56.18L82.5 51.3175Z" stroke="#008000" stroke-width="3.5" stroke-linecap="round" stroke-linejoin="round"/>
<path d="M78.6946 57.5C79.1946 60.965 80.3621 64.925 79.8871 68.45C79.4596 71.6425 76.9321 74.22 73.6071 74.8525C72.8321 75 71.8871 75 69.9996 75M55.6246 65L50.7596 69.7925C50.1671 70.435 49.8696 70.755 50.0546 71.0025C50.2371 71.25 50.7721 71.25 51.8421 71.25H55.6546C56.7271 71.25 57.2621 71.25 57.4446 71.4975C57.6296 71.7475 57.3321 72.065 56.7396 72.7075L51.8421 77.5" stroke="#008000" stroke-width="3.5" stroke-linecap="round" stroke-linejoin="round"/>
</svg>
