<svg width="120" height="120" viewBox="0 0 120 120" fill="none" xmlns="http://www.w3.org/2000/svg">
<circle cx="60" cy="60" r="59.1944" fill="white" stroke="#DEDEDE" stroke-width="1.61111"/>
<path d="M72.575 63.37C73.9275 62.7475 74.605 62.4375 74.8025 62.1275C75 61.82 75 61.3275 75 60.3475V59.6525C75 58.67 75 58.18 74.8025 57.8725C74.605 57.5625 73.9275 57.2525 72.575 56.63C70.5675 55.705 69.2775 53.6875 69.3475 51.5725C69.4 49.9575 69.4275 49.15 69.25 48.845C69.075 48.5375 68.65 48.305 67.805 47.84L66.9975 47.3975C66.1725 46.9475 65.7625 46.7225 65.4125 46.74C65.0625 46.755 64.4625 47.16 63.27 47.97C62.3017 48.6145 61.1644 48.9583 60.0012 48.9583C58.8381 48.9583 57.7008 48.6145 56.7325 47.97C55.5375 47.16 54.9425 46.755 54.59 46.7375C54.24 46.7225 53.8275 46.9475 53.005 47.3975L52.1975 47.84C51.35 48.305 50.9275 48.5375 50.7525 48.8425C50.5775 49.15 50.6025 49.9575 50.6525 51.5725C50.7225 53.6875 49.4325 55.7075 47.4275 56.63C46.0725 57.2525 45.395 57.5625 45.1975 57.8725C45 58.18 45 58.6725 45 59.6525V60.3475C45 61.33 45 61.8225 45.1975 62.1275C45.395 62.4375 46.0725 62.7475 47.425 63.37C49.4325 64.295 50.7225 66.3125 50.6525 68.4275C50.6 70.0425 50.5725 70.85 50.75 71.155C50.925 71.4625 51.35 71.695 52.1975 72.16L53.0025 72.6025C53.8275 73.0525 54.2375 73.2775 54.5875 73.2625C54.9375 73.2475 55.5375 72.84 56.73 72.03C57.6989 71.3845 58.837 71.0401 60.0012 71.0401C61.1655 71.0401 62.3036 71.3845 63.2725 72.03C64.465 72.84 65.0625 73.245 65.415 73.26C65.765 73.2775 66.1775 73.0525 67 72.6025L67.805 72.16C68.655 71.695 69.08 71.4625 69.255 71.155C69.43 70.85 69.4025 70.0425 69.35 68.4275C69.28 66.3125 70.5675 64.2925 72.575 63.37Z" stroke="#008000" stroke-width="2.5" stroke-linecap="round" stroke-linejoin="round"/>
<path d="M60 64.375C62.4162 64.375 64.375 62.4162 64.375 60C64.375 57.5838 62.4162 55.625 60 55.625C57.5838 55.625 55.625 57.5838 55.625 60C55.625 62.4162 57.5838 64.375 60 64.375Z" stroke="#008000" stroke-width="2.5" stroke-linecap="round" stroke-linejoin="round"/>
<path d="M77.5 35V42.1475C72.8315 37.5596 66.5456 34.9923 60 35C46.1925 35 35 46.1925 35 60C34.9978 63.441 35.7059 66.8453 37.08 70M42.5 85V77.8525C47.1685 82.4404 53.4545 85.0078 60 85C73.8075 85 85 73.8075 85 60C85.0023 56.5591 84.2941 53.1547 82.92 50" stroke="#008000" stroke-width="2.5" stroke-linecap="round" stroke-linejoin="round"/>
</svg>
