<svg width="120" height="120" viewBox="0 0 120 120" fill="none" xmlns="http://www.w3.org/2000/svg">
<circle cx="60" cy="60" r="59.1944" fill="white" stroke="#DEDEDE" stroke-width="1.61111"/>
<path d="M60 33.75L52.5 45L61.875 46.875L60 56.25L67.5 45L58.125 43.125L60 33.75ZM48.75 59.1797C48.5273 59.1797 47.6016 59.5312 46.8984 59.9648C46.5703 60.1641 46.2773 60.375 46.0547 60.5273V74.4727C46.2773 74.625 46.5703 74.8359 46.8984 75.0352C47.6016 75.4688 48.5273 75.8203 48.75 75.8203C48.9727 75.8203 49.8984 75.4688 50.6016 75.0352C51.293 74.6016 51.8438 74.1797 51.8438 74.1797L52.1367 73.9453H53.5547V61.0547H52.1367L51.8438 60.8203C51.8438 60.8203 51.293 60.3984 50.6016 59.9648C49.8984 59.5312 48.9727 59.1797 48.75 59.1797ZM71.25 59.1797C71.0273 59.1797 70.1016 59.5312 69.3984 59.9648C68.707 60.3984 68.1562 60.8203 68.1562 60.8203L67.8633 61.0547H66.4453V73.9453H67.8633L68.1562 74.1797C68.1562 74.1797 68.707 74.6016 69.3984 75.0352C70.1016 75.4688 71.0273 75.8203 71.25 75.8203C71.4727 75.8203 72.3984 75.4688 73.1016 75.0352C73.4297 74.8359 73.7227 74.625 73.9453 74.4727V60.5273C73.7227 60.375 73.4297 60.1641 73.1016 59.9648C72.3984 59.5312 71.4727 59.1797 71.25 59.1797ZM55.6641 61.0547V73.9453H57.3047V61.0547H55.6641ZM59.4141 61.0547V73.9453H64.3359V61.0547H59.4141ZM41.1914 66.4453C38.9883 66.4453 36.9023 67.5234 35.3391 69.1055C33.7758 70.6758 32.6953 72.7734 32.6953 75V87.4219H34.8047V75C34.8047 73.4766 35.5992 71.8242 36.8344 70.582C38.0684 69.3516 39.7031 68.5547 41.1914 68.5547H43.9453V66.4453H41.1914ZM76.0547 66.4453V68.5547H78.7383C80.2734 68.5547 81.9141 69.3516 83.1562 70.5938C84.3984 71.8359 85.1953 73.4766 85.1953 75V87.4219H87.3047V75C87.3047 72.7734 86.2266 70.6641 84.6445 69.0938C83.0742 67.5234 80.9648 66.4453 78.7383 66.4453H76.0547Z" fill="#008000"/>
</svg>
