<svg width="55" height="52" viewBox="0 0 55 52" fill="none" xmlns="http://www.w3.org/2000/svg">
<path fill-rule="evenodd" clip-rule="evenodd" d="M38.125 4.375V8.6L43.125 12.6V4.375H38.125ZM46.875 15.6V3.75C46.875 2.025 45.475 0.625 43.75 0.625H37.5C35.775 0.625 34.375 2.025 34.375 3.75V5.6L33.3575 4.785C31.695 3.45466 29.6292 2.72986 27.5 2.72986C25.3708 2.72986 23.305 3.45466 21.6425 4.785L1.33 21.035C0.941458 21.3456 0.692228 21.7979 0.63714 22.2923C0.582051 22.7867 0.725615 23.2827 1.03625 23.6713C1.34688 24.0598 1.79914 24.309 2.29354 24.3641C2.78793 24.4192 3.28396 24.2756 3.6725 23.965L5.625 22.4V48.125H2.5C2.00272 48.125 1.52581 48.3225 1.17417 48.6742C0.822544 49.0258 0.625 49.5027 0.625 50C0.625 50.4973 0.822544 50.9742 1.17417 51.3258C1.52581 51.6775 2.00272 51.875 2.5 51.875H52.5C52.9973 51.875 53.4742 51.6775 53.8258 51.3258C54.1775 50.9742 54.375 50.4973 54.375 50C54.375 49.5027 54.1775 49.0258 53.8258 48.6742C53.4742 48.3225 52.9973 48.125 52.5 48.125H49.375V22.4L51.33 23.965C51.7192 24.2683 52.2122 24.4059 52.7022 24.3481C53.1922 24.2903 53.6397 24.0417 53.9476 23.6561C54.2555 23.2706 54.3991 22.7792 54.3471 22.2886C54.2951 21.7979 54.0518 21.3475 53.67 21.035L46.875 15.6ZM45.625 19.4L31.015 7.7125C30.0174 6.91404 28.7778 6.47901 27.5 6.47901C26.2222 6.47901 24.9826 6.91404 23.985 7.7125L9.375 19.4V48.125H18.125V37.375C18.125 35.715 18.125 34.2825 18.28 33.135C18.445 31.905 18.8175 30.7275 19.7725 29.7725C20.7275 28.8175 21.9075 28.445 23.135 28.28C24.2825 28.125 25.715 28.125 27.3775 28.125H27.6225C29.285 28.125 30.7175 28.125 31.865 28.28C33.095 28.445 34.2725 28.8175 35.2275 29.7725C36.1825 30.7275 36.555 31.905 36.72 33.135C36.875 34.2825 36.875 35.715 36.875 37.3775V48.125H45.625V19.4ZM33.125 48.125V37.5C33.125 35.68 33.12 34.5 33.005 33.635C32.895 32.8225 32.72 32.5675 32.575 32.425C32.43 32.2825 32.1775 32.105 31.365 31.995C30.4975 31.88 29.32 31.875 27.5 31.875C25.68 31.875 24.5 31.88 23.635 31.995C22.8225 32.105 22.5675 32.2825 22.425 32.425C22.2825 32.5675 22.105 32.8225 21.995 33.635C21.88 34.5025 21.875 35.68 21.875 37.5V48.125H33.125ZM27.5 15.625C27.0896 15.625 26.6833 15.7058 26.3041 15.8629C25.925 16.0199 25.5805 16.2501 25.2903 16.5403C25.0001 16.8305 24.7699 17.175 24.6129 17.5541C24.4558 17.9333 24.375 18.3396 24.375 18.75C24.375 19.1604 24.4558 19.5667 24.6129 19.9459C24.7699 20.325 25.0001 20.6695 25.2903 20.9597C25.5805 21.2499 25.925 21.4801 26.3041 21.6371C26.6833 21.7942 27.0896 21.875 27.5 21.875C28.3288 21.875 29.1237 21.5458 29.7097 20.9597C30.2958 20.3737 30.625 19.5788 30.625 18.75C30.625 17.9212 30.2958 17.1263 29.7097 16.5403C29.1237 15.9542 28.3288 15.625 27.5 15.625ZM20.625 18.75C20.625 16.9266 21.3493 15.178 22.6386 13.8886C23.9279 12.5993 25.6766 11.875 27.5 11.875C29.3234 11.875 31.072 12.5993 32.3614 13.8886C33.6507 15.178 34.375 16.9266 34.375 18.75C34.375 20.5734 33.6507 22.322 32.3614 23.6114C31.072 24.9007 29.3234 25.625 27.5 25.625C25.6766 25.625 23.9279 24.9007 22.6386 23.6114C21.3493 22.322 20.625 20.5734 20.625 18.75Z" fill="white"/>
</svg>
